<svg xmlns="http://www.w3.org/2000/svg" viewBox="0 0 128 128">
  <defs>
    <linearGradient id="grad1" x1="0%" y1="0%" x2="100%" y2="100%">
      <stop offset="0%" style="stop-color:#3B82F6;stop-opacity:1" />
      <stop offset="100%" style="stop-color:#8B5CF6;stop-opacity:1" />
    </linearGradient>
    <linearGradient id="grad2" x1="0%" y1="0%" x2="100%" y2="100%">
      <stop offset="0%" style="stop-color:#10B981;stop-opacity:1" />
      <stop offset="100%" style="stop-color:#3B82F6;stop-opacity:1" />
    </linearGradient>
  </defs>
  
  <!-- Background Circle -->
  <circle cx="64" cy="64" r="60" fill="url(#grad1)" stroke="#1a1a1a" stroke-width="4"/>
  
  <!-- YouTube Play Button Shape -->
  <path d="M45 35 L45 93 L85 64 Z" fill="white" opacity="0.9"/>
  
  <!-- Algorithm Visualization (Connected Dots) -->
  <g fill="url(#grad2)" opacity="0.8">
    <!-- Central Node -->
    <circle cx="64" cy="64" r="4"/>
    
    <!-- Surrounding Nodes -->
    <circle cx="40" cy="45" r="3"/>
    <circle cx="88" cy="45" r="3"/>
    <circle cx="40" cy="83" r="3"/>
    <circle cx="88" cy="83" r="3"/>
    <circle cx="25" cy="64" r="2"/>
    <circle cx="103" cy="64" r="2"/>
    
    <!-- Connection Lines -->
    <g stroke="url(#grad2)" stroke-width="2" fill="none" opacity="0.6">
      <line x1="64" y1="64" x2="40" y2="45"/>
      <line x1="64" y1="64" x2="88" y2="45"/>
      <line x1="64" y1="64" x2="40" y2="83"/>
      <line x1="64" y1="64" x2="88" y2="83"/>
      <line x1="64" y1="64" x2="25" y2="64"/>
      <line x1="64" y1="64" x2="103" y2="64"/>
    </g>
  </g>
  
  <!-- Target Symbol -->
  <g stroke="white" stroke-width="2" fill="none" opacity="0.7">
    <circle cx="64" cy="25" r="8"/>
    <circle cx="64" cy="25" r="4"/>
    <line x1="64" y1="15" x2="64" y2="35"/>
    <line x1="54" y1="25" x2="74" y2="25"/>
  </g>
</svg>